# xmcd CD database file
#
# Track frame offsets:
#	150
#	19267
#	32210
#	43537
#	60840
#	75032
#	89232
#	104355
#	125155
#	140402
#	157227
#	169152
#	180472
#	194737
#	214135
#	237530
#
# Disc length: 3307 seconds
#
# Revision: 1
# Processed by: cddbd v1.5.1PL0 Copyright (c) Steve Scherf et al.
# Submitted via: CDex 1.51
#
DISCID=e40ce910
DTITLE=astrobrite - super crush
DYEAR=2002
DGENRE=Rock
TTITLE0=crasher
TTITLE1=booster
TTITLE2=girl friend
TTITLE3=super crushed
TTITLE4=over driver
TTITLE5=sucker punch
TTITLE6=bottle rocket
TTITLE7=lemon drop
TTITLE8=smile
TTITLE9=radio friendly
TTITLE10=i want you
TTITLE11=dizzy
TTITLE12=stay
TTITLE13=jaw breaker
TTITLE14=[unknown]
TTITLE15=[unknown]
EXTD=YEAR: 2002.05/22
EXTT0=
EXTT1=
EXTT2=
EXTT3=
EXTT4=
EXTT5=
EXTT6=
EXTT7=
EXTT8=
EXTT9=
EXTT10=
EXTT11=
EXTT12=
EXTT13=
EXTT14=
EXTT15=
PLAYORDER=
